<mxfile host="app.diagrams.net" modified="2021-05-10T16:04:32.807Z" agent="5.0 (Macintosh; Intel Mac OS X 10_15_7) AppleWebKit/537.36 (KHTML, like Gecko) Chrome/90.0.4430.93 Safari/537.36" etag="mx4pRfFoXsIUde4izXGr" version="14.6.0" type="github">
  <diagram id="LYZMTI5ueJa55X82VWH2" name="Page-1">
    <mxGraphModel dx="1186" dy="796" grid="1" gridSize="10" guides="1" tooltips="1" connect="1" arrows="1" fold="1" page="1" pageScale="1" pageWidth="850" pageHeight="1100" math="0" shadow="0">
      <root>
        <mxCell id="0" />
        <mxCell id="1" parent="0" />
        <mxCell id="n9momN5kFkzfDqS1wyuu-22" style="edgeStyle=orthogonalEdgeStyle;rounded=0;orthogonalLoop=1;jettySize=auto;html=1;entryX=0.5;entryY=0;entryDx=0;entryDy=0;" edge="1" parent="1" source="n9momN5kFkzfDqS1wyuu-1" target="n9momN5kFkzfDqS1wyuu-2">
          <mxGeometry relative="1" as="geometry" />
        </mxCell>
        <mxCell id="n9momN5kFkzfDqS1wyuu-1" value="Customer/Prospect" style="rounded=0;whiteSpace=wrap;html=1;" vertex="1" parent="1">
          <mxGeometry x="57" y="120" width="120" height="60" as="geometry" />
        </mxCell>
        <mxCell id="n9momN5kFkzfDqS1wyuu-23" style="edgeStyle=orthogonalEdgeStyle;rounded=0;orthogonalLoop=1;jettySize=auto;html=1;entryX=0.5;entryY=0;entryDx=0;entryDy=0;" edge="1" parent="1" source="n9momN5kFkzfDqS1wyuu-2" target="n9momN5kFkzfDqS1wyuu-3">
          <mxGeometry relative="1" as="geometry" />
        </mxCell>
        <mxCell id="n9momN5kFkzfDqS1wyuu-49" style="edgeStyle=orthogonalEdgeStyle;rounded=0;orthogonalLoop=1;jettySize=auto;html=1;" edge="1" parent="1" source="n9momN5kFkzfDqS1wyuu-2">
          <mxGeometry relative="1" as="geometry">
            <mxPoint x="50" y="270" as="targetPoint" />
          </mxGeometry>
        </mxCell>
        <mxCell id="n9momN5kFkzfDqS1wyuu-2" value="Opportunity" style="rounded=0;whiteSpace=wrap;html=1;" vertex="1" parent="1">
          <mxGeometry x="57" y="240" width="120" height="60" as="geometry" />
        </mxCell>
        <mxCell id="n9momN5kFkzfDqS1wyuu-28" value="" style="edgeStyle=orthogonalEdgeStyle;rounded=0;orthogonalLoop=1;jettySize=auto;html=1;" edge="1" parent="1" source="n9momN5kFkzfDqS1wyuu-3" target="n9momN5kFkzfDqS1wyuu-4">
          <mxGeometry relative="1" as="geometry" />
        </mxCell>
        <mxCell id="n9momN5kFkzfDqS1wyuu-3" value="Quote/proposal" style="rounded=0;whiteSpace=wrap;html=1;" vertex="1" parent="1">
          <mxGeometry x="57" y="370" width="120" height="60" as="geometry" />
        </mxCell>
        <mxCell id="n9momN5kFkzfDqS1wyuu-15" style="edgeStyle=orthogonalEdgeStyle;rounded=0;orthogonalLoop=1;jettySize=auto;html=1;entryX=0.5;entryY=1;entryDx=0;entryDy=0;" edge="1" parent="1" source="n9momN5kFkzfDqS1wyuu-4" target="n9momN5kFkzfDqS1wyuu-5">
          <mxGeometry relative="1" as="geometry" />
        </mxCell>
        <mxCell id="n9momN5kFkzfDqS1wyuu-4" value="Product Selection" style="rounded=0;whiteSpace=wrap;html=1;" vertex="1" parent="1">
          <mxGeometry x="256" y="370" width="120" height="60" as="geometry" />
        </mxCell>
        <mxCell id="n9momN5kFkzfDqS1wyuu-25" style="edgeStyle=orthogonalEdgeStyle;rounded=0;orthogonalLoop=1;jettySize=auto;html=1;entryX=0.5;entryY=1;entryDx=0;entryDy=0;" edge="1" parent="1" source="n9momN5kFkzfDqS1wyuu-5" target="n9momN5kFkzfDqS1wyuu-6">
          <mxGeometry relative="1" as="geometry" />
        </mxCell>
        <mxCell id="n9momN5kFkzfDqS1wyuu-5" value="Price / Discount" style="rounded=0;whiteSpace=wrap;html=1;" vertex="1" parent="1">
          <mxGeometry x="256" y="241" width="120" height="60" as="geometry" />
        </mxCell>
        <mxCell id="n9momN5kFkzfDqS1wyuu-17" style="edgeStyle=orthogonalEdgeStyle;rounded=0;orthogonalLoop=1;jettySize=auto;html=1;entryX=0;entryY=0.5;entryDx=0;entryDy=0;" edge="1" parent="1" source="n9momN5kFkzfDqS1wyuu-6" target="n9momN5kFkzfDqS1wyuu-11">
          <mxGeometry relative="1" as="geometry" />
        </mxCell>
        <mxCell id="n9momN5kFkzfDqS1wyuu-55" value="Approve" style="edgeLabel;html=1;align=center;verticalAlign=middle;resizable=0;points=[];" vertex="1" connectable="0" parent="n9momN5kFkzfDqS1wyuu-17">
          <mxGeometry x="-0.2" y="2" relative="1" as="geometry">
            <mxPoint as="offset" />
          </mxGeometry>
        </mxCell>
        <mxCell id="n9momN5kFkzfDqS1wyuu-53" style="edgeStyle=orthogonalEdgeStyle;rounded=0;orthogonalLoop=1;jettySize=auto;html=1;entryX=0;entryY=0.5;entryDx=0;entryDy=0;" edge="1" parent="1" source="n9momN5kFkzfDqS1wyuu-6" target="n9momN5kFkzfDqS1wyuu-3">
          <mxGeometry relative="1" as="geometry">
            <Array as="points">
              <mxPoint x="317" y="80" />
              <mxPoint x="20" y="80" />
              <mxPoint x="20" y="400" />
            </Array>
          </mxGeometry>
        </mxCell>
        <mxCell id="n9momN5kFkzfDqS1wyuu-54" value="Reject" style="edgeLabel;html=1;align=center;verticalAlign=middle;resizable=0;points=[];" vertex="1" connectable="0" parent="n9momN5kFkzfDqS1wyuu-53">
          <mxGeometry x="-0.4658" relative="1" as="geometry">
            <mxPoint x="1" as="offset" />
          </mxGeometry>
        </mxCell>
        <mxCell id="n9momN5kFkzfDqS1wyuu-6" value="Pricing Approval" style="rounded=0;whiteSpace=wrap;html=1;" vertex="1" parent="1">
          <mxGeometry x="256" y="121" width="121" height="60" as="geometry" />
        </mxCell>
        <mxCell id="n9momN5kFkzfDqS1wyuu-60" style="edgeStyle=orthogonalEdgeStyle;rounded=0;orthogonalLoop=1;jettySize=auto;html=1;" edge="1" parent="1" source="n9momN5kFkzfDqS1wyuu-11" target="n9momN5kFkzfDqS1wyuu-13">
          <mxGeometry relative="1" as="geometry" />
        </mxCell>
        <mxCell id="n9momN5kFkzfDqS1wyuu-11" value="Generate Contract" style="rounded=0;whiteSpace=wrap;html=1;" vertex="1" parent="1">
          <mxGeometry x="450" y="121" width="120" height="60" as="geometry" />
        </mxCell>
        <mxCell id="n9momN5kFkzfDqS1wyuu-12" value="Adobe Sign&lt;br&gt;eSignature" style="rounded=0;whiteSpace=wrap;html=1;" vertex="1" parent="1">
          <mxGeometry x="570" y="50" width="120" height="60" as="geometry" />
        </mxCell>
        <mxCell id="n9momN5kFkzfDqS1wyuu-33" style="edgeStyle=orthogonalEdgeStyle;rounded=0;orthogonalLoop=1;jettySize=auto;html=1;entryX=0.5;entryY=0;entryDx=0;entryDy=0;" edge="1" parent="1" source="n9momN5kFkzfDqS1wyuu-13" target="n9momN5kFkzfDqS1wyuu-29">
          <mxGeometry relative="1" as="geometry" />
        </mxCell>
        <mxCell id="n9momN5kFkzfDqS1wyuu-13" value="Cosed/Won" style="rounded=0;whiteSpace=wrap;html=1;" vertex="1" parent="1">
          <mxGeometry x="710" y="121" width="120" height="60" as="geometry" />
        </mxCell>
        <mxCell id="n9momN5kFkzfDqS1wyuu-43" style="edgeStyle=orthogonalEdgeStyle;rounded=0;orthogonalLoop=1;jettySize=auto;html=1;entryX=1;entryY=0.5;entryDx=0;entryDy=0;" edge="1" parent="1" source="n9momN5kFkzfDqS1wyuu-29" target="n9momN5kFkzfDqS1wyuu-41">
          <mxGeometry relative="1" as="geometry" />
        </mxCell>
        <mxCell id="n9momN5kFkzfDqS1wyuu-44" style="edgeStyle=orthogonalEdgeStyle;rounded=0;orthogonalLoop=1;jettySize=auto;html=1;entryX=0.5;entryY=0;entryDx=0;entryDy=0;" edge="1" parent="1" source="n9momN5kFkzfDqS1wyuu-29" target="n9momN5kFkzfDqS1wyuu-37">
          <mxGeometry relative="1" as="geometry" />
        </mxCell>
        <mxCell id="n9momN5kFkzfDqS1wyuu-29" value="Contract/Subscription&lt;br&gt;Asset" style="rounded=0;whiteSpace=wrap;html=1;" vertex="1" parent="1">
          <mxGeometry x="710" y="272" width="121" height="60" as="geometry" />
        </mxCell>
        <mxCell id="n9momN5kFkzfDqS1wyuu-34" value="Order" style="rounded=0;whiteSpace=wrap;html=1;" vertex="1" parent="1">
          <mxGeometry x="630" y="200" width="80" height="50" as="geometry" />
        </mxCell>
        <mxCell id="n9momN5kFkzfDqS1wyuu-45" style="edgeStyle=orthogonalEdgeStyle;rounded=0;orthogonalLoop=1;jettySize=auto;html=1;entryX=0;entryY=0.5;entryDx=0;entryDy=0;" edge="1" parent="1" source="n9momN5kFkzfDqS1wyuu-37" target="n9momN5kFkzfDqS1wyuu-2">
          <mxGeometry relative="1" as="geometry">
            <Array as="points">
              <mxPoint x="770" y="460" />
              <mxPoint x="37" y="460" />
              <mxPoint x="37" y="270" />
            </Array>
          </mxGeometry>
        </mxCell>
        <mxCell id="n9momN5kFkzfDqS1wyuu-37" value="Renew&lt;span style=&quot;color: rgba(0 , 0 , 0 , 0) ; font-family: monospace ; font-size: 0px&quot;&gt;%3CmxGraphModel%3E%3Croot%3E%3CmxCell%20id%3D%220%22%2F%3E%3CmxCell%20id%3D%221%22%20parent%3D%220%22%2F%3E%3CmxCell%20id%3D%222%22%20value%3D%22Generate%20Contract%22%20style%3D%22rounded%3D0%3BwhiteSpace%3Dwrap%3Bhtml%3D1%3B%22%20vertex%3D%221%22%20parent%3D%221%22%3E%3CmxGeometry%20x%3D%22417%22%20y%3D%22121%22%20width%3D%22120%22%20height%3D%2260%22%20as%3D%22geometry%22%2F%3E%3C%2FmxCell%3E%3C%2Froot%3E%3C%2FmxGraphModel%3E&lt;/span&gt;" style="rounded=0;whiteSpace=wrap;html=1;" vertex="1" parent="1">
          <mxGeometry x="710" y="370" width="120" height="60" as="geometry" />
        </mxCell>
        <mxCell id="n9momN5kFkzfDqS1wyuu-56" style="edgeStyle=orthogonalEdgeStyle;rounded=0;orthogonalLoop=1;jettySize=auto;html=1;entryX=1;entryY=0.5;entryDx=0;entryDy=0;" edge="1" parent="1" source="n9momN5kFkzfDqS1wyuu-41" target="n9momN5kFkzfDqS1wyuu-2">
          <mxGeometry relative="1" as="geometry">
            <Array as="points">
              <mxPoint x="551" y="450" />
              <mxPoint x="210" y="450" />
              <mxPoint x="210" y="270" />
            </Array>
          </mxGeometry>
        </mxCell>
        <mxCell id="n9momN5kFkzfDqS1wyuu-41" value="Amend" style="rounded=0;whiteSpace=wrap;html=1;" vertex="1" parent="1">
          <mxGeometry x="490" y="272" width="121" height="60" as="geometry" />
        </mxCell>
        <mxCell id="n9momN5kFkzfDqS1wyuu-58" value="" style="endArrow=none;dashed=1;html=1;dashPattern=1 3;strokeWidth=2;entryX=0.5;entryY=1;entryDx=0;entryDy=0;exitX=0.5;exitY=0;exitDx=0;exitDy=0;" edge="1" parent="1" source="n9momN5kFkzfDqS1wyuu-34" target="n9momN5kFkzfDqS1wyuu-13">
          <mxGeometry width="50" height="50" relative="1" as="geometry">
            <mxPoint x="430" y="430" as="sourcePoint" />
            <mxPoint x="480" y="380" as="targetPoint" />
          </mxGeometry>
        </mxCell>
        <mxCell id="n9momN5kFkzfDqS1wyuu-59" value="" style="endArrow=none;dashed=1;html=1;dashPattern=1 3;strokeWidth=2;entryX=0.5;entryY=1;entryDx=0;entryDy=0;exitX=0.5;exitY=0;exitDx=0;exitDy=0;" edge="1" parent="1" source="n9momN5kFkzfDqS1wyuu-29" target="n9momN5kFkzfDqS1wyuu-34">
          <mxGeometry width="50" height="50" relative="1" as="geometry">
            <mxPoint x="430" y="430" as="sourcePoint" />
            <mxPoint x="480" y="380" as="targetPoint" />
          </mxGeometry>
        </mxCell>
        <mxCell id="n9momN5kFkzfDqS1wyuu-61" value="" style="endArrow=none;dashed=1;html=1;entryX=0.5;entryY=0;entryDx=0;entryDy=0;exitX=0;exitY=0.5;exitDx=0;exitDy=0;" edge="1" parent="1" source="n9momN5kFkzfDqS1wyuu-12" target="n9momN5kFkzfDqS1wyuu-11">
          <mxGeometry width="50" height="50" relative="1" as="geometry">
            <mxPoint x="430" y="430" as="sourcePoint" />
            <mxPoint x="480" y="380" as="targetPoint" />
            <Array as="points">
              <mxPoint x="510" y="80" />
            </Array>
          </mxGeometry>
        </mxCell>
        <mxCell id="n9momN5kFkzfDqS1wyuu-62" value="" style="endArrow=none;dashed=1;html=1;dashPattern=1 3;strokeWidth=2;entryX=1;entryY=0.5;entryDx=0;entryDy=0;exitX=0.5;exitY=0;exitDx=0;exitDy=0;" edge="1" parent="1" source="n9momN5kFkzfDqS1wyuu-13" target="n9momN5kFkzfDqS1wyuu-12">
          <mxGeometry width="50" height="50" relative="1" as="geometry">
            <mxPoint x="430" y="430" as="sourcePoint" />
            <mxPoint x="480" y="380" as="targetPoint" />
            <Array as="points">
              <mxPoint x="770" y="80" />
            </Array>
          </mxGeometry>
        </mxCell>
      </root>
    </mxGraphModel>
  </diagram>
</mxfile>
